# xmcd
#
# Track frame offsets:
#	150
#	15690
#	31594
#	50179
#	64200
#	80114
#	95653
#	114641
#	130029
#	146322
#	164841
#	179640
#	196268
#	212277
#	226796
#	246217
#	262273
#	277812
#	291098
#
# Disc length: 4094 seconds
#
# Revision: 1
# Processed by: cddbd v1.5.1PL2 Copyright (c) Steve Scherf et al.
# Submitted via: audiograbber 1.83.01
#
DISCID=190ffc13
DTITLE=Saia Rodada - Saia Rodada Volume 6
DYEAR=2006
DGENRE=Forro
TTITLE0=Saia Rodada
TTITLE1=Só pra você
TTITLE2=Perdoa-me
TTITLE3=Simancol
TTITLE4=Filme de Amor
TTITLE5=Você não tá com nada
TTITLE6=Na hora H
TTITLE7=Swing louco II
TTITLE8=Eu Agradeço
TTITLE9=Ponto G
TTITLE10=Gaginho
TTITLE11=Bye Bye Tchau
TTITLE12=Tudo Faz Lembrar Você
TTITLE13=Você me Prometeu
TTITLE14=Amigo da Onça
TTITLE15=Lambadão
TTITLE16=Faixa Bonus I
TTITLE17=Faixa Bonus II
TTITLE18=Faixa Bonus III
EXTD=
EXTT0=
EXTT1=
EXTT2=
EXTT3=
EXTT4=
EXTT5=
EXTT6=
EXTT7=
EXTT8=
EXTT9=
EXTT10=
EXTT11=
EXTT12=
EXTT13=
EXTT14=
EXTT15=
EXTT16=
EXTT17=
EXTT18=
PLAYORDER=
